<svg width="24" height="24" viewBox="0 0 24 24" fill="none" xmlns="http://www.w3.org/2000/svg">
<g clip-path="url(#clip0_72_1640)">
<path fill-rule="evenodd" clip-rule="evenodd" d="M11.37 0.83L12 3.28L12.63 0.83H11.37ZM13.92 3.95L15.44 1.85L14.26 1.45L13.92 3.95ZM8.59 1.84L10.11 3.95L9.77 1.45L8.59 1.85V1.84ZM18.52 18.92C17.8336 19.6622 16.9042 20.134 15.9 20.25L16.31 19.88C18.7 17.48 19.17 14.93 17.71 12.25L16.8 10.65L16 8.98C15.75 8.42 15.81 8 16.21 7.69C16.2876 7.63129 16.3766 7.58941 16.4713 7.56703C16.566 7.54464 16.6643 7.54225 16.76 7.56C17.04 7.61 17.3 7.79 17.48 8.06L19.85 12.22C20.82 13.84 20.99 16.45 18.52 18.92ZM7.52 18.48L3.37 14.33C3.23484 14.1711 3.16445 13.9672 3.17284 13.7588C3.18123 13.5504 3.26778 13.3528 3.41527 13.2053C3.56276 13.0578 3.76038 12.9712 3.96879 12.9628C4.1772 12.9545 4.38113 13.0248 4.54 13.16L6.7 15.32C6.77173 15.3689 6.85835 15.391 6.94472 15.3824C7.03109 15.3739 7.11171 15.3353 7.17248 15.2733C7.23325 15.2113 7.2703 15.13 7.27716 15.0435C7.28402 14.9569 7.26025 14.8708 7.21 14.8L5.06 12.64L3.6 11.2C3.46484 11.0411 3.39445 10.8372 3.40284 10.6288C3.41123 10.4204 3.49778 10.2228 3.64527 10.0753C3.79276 9.92778 3.99038 9.84123 4.19879 9.83284C4.4072 9.82445 4.61113 9.89484 4.77 10.03L8.2 13.47C8.2336 13.5051 8.27396 13.533 8.31865 13.5521C8.36333 13.5712 8.41141 13.581 8.46 13.581C8.50859 13.581 8.55667 13.5712 8.60135 13.5521C8.64604 13.533 8.6864 13.5051 8.72 13.47C8.75509 13.4364 8.78301 13.396 8.80209 13.3514C8.82117 13.3067 8.831 13.2586 8.831 13.21C8.831 13.1614 8.82117 13.1133 8.80209 13.0686C8.78301 13.024 8.75509 12.9836 8.72 12.95L5.29 9.51L4.32 8.54C4.16852 8.38494 4.08372 8.17677 4.08372 7.96C4.08372 7.74323 4.16852 7.53506 4.32 7.38C4.47675 7.22788 4.68658 7.14281 4.905 7.14281C5.12342 7.14281 5.33325 7.22788 5.49 7.38L6.46 8.35L9.9 11.78C9.93344 11.8136 9.97319 11.8402 10.0169 11.8584C10.0607 11.8765 10.1076 11.8859 10.155 11.8859C10.2024 11.8859 10.2493 11.8765 10.2931 11.8584C10.3368 11.8402 10.3766 11.8136 10.41 11.78C10.4784 11.7107 10.5168 11.6173 10.5168 11.52C10.5168 11.4227 10.4784 11.3293 10.41 11.26L6.98 7.83C6.86366 7.71504 6.78436 7.56792 6.75229 7.40754C6.72021 7.24717 6.73683 7.08086 6.8 6.93C6.86163 6.77907 6.96685 6.64994 7.10222 6.5591C7.2376 6.46826 7.39697 6.41983 7.56 6.42C7.78 6.42 7.99 6.51 8.14 6.66L13.94 12.45C14.0032 12.5021 14.0819 12.5317 14.1637 12.5343C14.2456 12.5368 14.326 12.5122 14.3923 12.4641C14.4586 12.4161 14.5071 12.3474 14.5303 12.2689C14.5534 12.1903 14.5498 12.1063 14.52 12.03L13.4 9.67C13.14 9.11 13.2 8.69 13.6 8.38C13.6776 8.32129 13.7666 8.27941 13.8613 8.25703C13.956 8.23464 14.0543 8.23225 14.15 8.25C14.43 8.3 14.7 8.48 14.88 8.75L17.08 12.61C18.38 14.99 17.95 17.2 15.79 19.36C15.2594 19.9172 14.5989 20.334 13.8677 20.5731C13.1364 20.8122 12.3572 20.8661 11.6 20.73C10.0445 20.4156 8.62355 19.63 7.53 18.48H7.52ZM10.75 5.98L12.87 8.09C12.46 8.59 12.4 9.26 12.74 9.99L12.96 10.45L9.44 6.92C9.37907 6.80943 9.34482 6.68615 9.34 6.56C9.34 6.33 9.43 6.13 9.58 5.97C9.73793 5.82018 9.94732 5.73666 10.165 5.73666C10.3827 5.73666 10.5921 5.82018 10.75 5.97V5.98ZM18.11 7.68C17.9739 7.46279 17.7944 7.27606 17.5828 7.1315C17.3711 6.98695 17.1318 6.88771 16.88 6.84C16.6848 6.80549 16.4845 6.81165 16.2918 6.85811C16.0991 6.90457 15.918 6.99032 15.76 7.11C15.46 7.35 15.26 7.66 15.18 8C14.93 7.75 14.61 7.6 14.27 7.53C13.99 7.49 13.71 7.53 13.45 7.63L11.27 5.45C10.9777 5.15933 10.5822 4.99616 10.17 4.99616C9.75777 4.99616 9.3623 5.15933 9.07 5.45C8.87 5.65 8.74 5.89 8.67 6.15C8.47344 5.95128 8.22709 5.80902 7.95672 5.7381C7.68635 5.66718 7.40189 5.6702 7.1331 5.74685C6.8643 5.82351 6.62103 5.97097 6.42874 6.17383C6.23644 6.37669 6.10218 6.62749 6.04 6.9C5.74661 6.60441 5.34952 6.43488 4.93312 6.42741C4.51671 6.41994 4.1138 6.57513 3.81 6.86C3.51933 7.1523 3.35616 7.54777 3.35616 7.96C3.35616 8.37223 3.51933 8.7677 3.81 9.06C3.57 9.16 3.31 9.3 3.09 9.51C2.79933 9.8023 2.63616 10.1978 2.63616 10.61C2.63616 11.0222 2.79933 11.4177 3.09 11.71L3.61 12.23C3.34142 12.2943 3.09473 12.4287 2.89512 12.6196C2.69552 12.8104 2.55015 13.0509 2.47388 13.3163C2.39761 13.5817 2.39317 13.8626 2.46101 14.1303C2.52884 14.398 2.66653 14.6429 2.86 14.84L7 19C8.20535 20.2586 9.76997 21.1142 11.48 21.45C12.6244 21.6658 13.808 21.4896 14.84 20.95C15.6097 21.0497 16.392 20.9647 17.1223 20.7021C17.8526 20.4396 18.51 20.0069 19.04 19.44C21.79 16.67 21.58 13.7 20.47 11.85L18.1 7.68H18.11Z" fill="#706E72"/>
</g>
<defs>
<clipPath id="clip0_72_1640">
<rect width="24" height="24" fill="white"/>
</clipPath>
</defs>
</svg>
