<svg width="24" height="24" viewBox="0 0 24 24" fill="none" xmlns="http://www.w3.org/2000/svg">
<g clip-path="url(#clip0_72_1604)">
<path d="M19.75 12.04C19.75 7.74001 16.28 4.25001 12 4.25001C10.5115 4.2477 9.05365 4.673 7.79987 5.47532C6.54609 6.27765 5.54916 7.42322 4.92765 8.77578C4.30615 10.1283 4.08624 11.631 4.29407 13.1049C4.50191 14.5788 5.12874 15.962 6.10002 17.09C7.30052 18.4969 8.9635 19.4295 10.79 19.72V14.23H8.89002V12.03H10.79V10.41C10.79 8.53001 11.93 7.51001 13.59 7.51001C14.39 7.51001 15.08 7.57001 15.28 7.59001V9.56001H14.13C13.22 9.56001 13.03 9.99001 13.03 10.63V12.03H15.2L14.92 14.23H13.04V19.75C14.8999 19.4914 16.6032 18.568 17.8349 17.1507C19.0667 15.7333 19.7434 13.9178 19.74 12.04" fill="#868588"/>
</g>
<defs>
<clipPath id="clip0_72_1604">
<rect width="24" height="24" fill="white"/>
</clipPath>
</defs>
</svg>
