<svg width="24" height="24" viewBox="0 0 24 24" fill="none" xmlns="http://www.w3.org/2000/svg">
<g clip-path="url(#clip0_72_1607)">
<path d="M19.75 5.39V18.61C19.75 18.9123 19.6299 19.2023 19.4161 19.4161C19.2023 19.6299 18.9123 19.75 18.61 19.75H5.39C5.08765 19.75 4.79769 19.6299 4.5839 19.4161C4.37011 19.2023 4.25 18.9123 4.25 18.61V5.39C4.25 5.08765 4.37011 4.79769 4.5839 4.5839C4.79769 4.37011 5.08765 4.25 5.39 4.25H18.61C18.9123 4.25 19.2023 4.37011 19.4161 4.5839C19.6299 4.79769 19.75 5.08765 19.75 5.39ZM8.81 10.18H6.53V17.48H8.8V10.18H8.81ZM9 7.67C9.00132 7.49797 8.96874 7.32736 8.90412 7.16792C8.8395 7.00848 8.74411 6.86332 8.62339 6.74075C8.50268 6.61818 8.359 6.52058 8.20056 6.45353C8.04212 6.38649 7.87203 6.35131 7.7 6.35H7.66C7.30991 6.35 6.97417 6.48907 6.72662 6.73662C6.47907 6.98417 6.34 7.31991 6.34 7.67C6.34 8.02009 6.47907 8.35583 6.72662 8.60338C6.97417 8.85093 7.30991 8.99 7.66 8.99C7.83204 8.99398 8.00319 8.96403 8.16365 8.90186C8.32411 8.83968 8.47076 8.74649 8.59519 8.62763C8.71963 8.50876 8.81943 8.36654 8.88889 8.20909C8.95835 8.05164 8.99611 7.88205 9 7.71V7.67ZM17.46 13.04C17.46 10.84 16.06 9.99 14.68 9.99C14.227 9.96903 13.7764 10.0669 13.373 10.2739C12.9695 10.4809 12.6272 10.7898 12.38 11.17H12.31V10.17H10.17V17.47H12.45V13.6C12.4166 13.204 12.5406 12.8108 12.7952 12.5057C13.0498 12.2005 13.4144 12.0081 13.81 11.97H13.9C14.62 11.97 15.16 12.42 15.16 13.57V17.48H17.44L17.46 13.05V13.04Z" fill="#868588"/>
</g>
<defs>
<clipPath id="clip0_72_1607">
<rect width="24" height="24" fill="white"/>
</clipPath>
</defs>
</svg>
