<svg width="25" height="24" viewBox="0 0 25 24" fill="none" xmlns="http://www.w3.org/2000/svg">
<g clip-path="url(#clip0_72_1645)">
<path d="M18.5625 16.8C19.2856 16.118 19.8584 15.2925 20.2441 14.3765C20.6298 13.4604 20.82 12.4738 20.8025 11.48C20.8025 7.36 17.2725 4 12.7525 4C8.2325 4 4.5625 7.36 4.5625 11.48C4.5625 15.61 8.2325 18.96 12.7625 18.96C13.5666 18.9613 14.3673 18.8537 15.1425 18.64C15.3725 18.84 15.6225 19.03 15.8925 19.2C16.9525 19.89 18.0925 20.24 19.2925 20.24C19.5125 20.24 19.6925 20.13 19.7725 19.95C19.8143 19.868 19.8327 19.7761 19.8257 19.6844C19.8186 19.5926 19.7864 19.5046 19.7325 19.43C19.1487 18.6468 18.7519 17.7403 18.5725 16.78V16.8H18.5625ZM15.4425 17.86L15.3825 17.64L15.0625 17.74C14.316 17.9613 13.5411 18.0725 12.7625 18.07C8.7325 18.07 5.4625 15.11 5.4625 11.48C5.4625 7.85 8.7325 4.9 12.7625 4.9C16.7625 4.9 19.8625 7.86 19.8625 11.5C19.8625 13.3 19.2625 14.97 17.8425 16.22L17.6425 16.38V16.64L17.6625 16.94C17.8001 17.7888 18.0988 18.6035 18.5425 19.34C17.764 19.2191 17.0225 18.9253 16.3725 18.48C16.0925 18.31 15.6525 18.1 15.4325 17.89L15.4425 17.87V17.86Z" fill="#706E72"/>
</g>
<defs>
<clipPath id="clip0_72_1645">
<rect width="24" height="24" fill="white" transform="translate(0.5625)"/>
</clipPath>
</defs>
</svg>
