<svg width="24" height="24" viewBox="0 0 24 24" fill="none" xmlns="http://www.w3.org/2000/svg">
<g clip-path="url(#clip0_72_1610)">
<path fill-rule="evenodd" clip-rule="evenodd" d="M3.57001 14.67C3.57001 14.1 3.70001 13.56 3.95001 13.07L3.97001 13.05V13.03L3.99001 13.01C3.99001 12.99 3.99001 12.99 4.01001 12.99C4.13001 12.73 4.31001 12.47 4.58001 12.19L7.78001 9V8.98L7.79001 8.96C8.23001 8.55 8.70001 8.26 9.23001 8.11C8.62337 8.77193 8.21154 9.58868 8.04001 10.47C7.98433 10.844 7.97091 11.223 8.00001 11.6L6.04001 13.6C5.85001 13.79 5.72001 14 5.66001 14.25C5.59163 14.5461 5.59163 14.8539 5.66001 15.15C5.74001 15.35 5.86001 15.55 6.04001 15.72L7.33001 17.03C7.60001 17.31 7.95001 17.45 8.36001 17.45C8.78001 17.45 9.14001 17.31 9.42001 17.03L10.65 15.78L11.44 15L12.59 13.84C12.67 13.75 12.78 13.62 12.87 13.44C12.97 13.24 13.02 13.02 13.02 12.77C13.02 12.61 13 12.47 12.96 12.32L12.94 12.3V12.28L12.87 12.14C12.87 12.14 12.87 12.11 12.83 12.08L12.77 11.95L12.75 11.93C12.75 11.91 12.75 11.9 12.73 11.88C12.6932 11.8188 12.6458 11.7646 12.59 11.72L12.11 11.22C12.11 11.18 12.13 11.12 12.15 11.07L12.21 10.95L13.38 9.81L13.47 9.72L14.03 10.29C14.05 10.33 14.11 10.39 14.19 10.47L14.24 10.51L14.27 10.57L14.31 10.62L14.34 10.66L14.38 10.72L14.48 10.86L14.5 10.88C14.5 10.9 14.51 10.91 14.53 10.92L14.63 11.12V11.14C14.73 11.3 14.83 11.52 14.93 11.82C14.9539 11.9013 14.9673 11.9853 14.97 12.07C15.0698 12.507 15.0766 12.9602 14.99 13.4C14.8726 14.106 14.5409 14.7588 14.04 15.27L13.38 15.94L12.41 16.91L10.85 18.48C10.5285 18.808 10.1439 19.0675 9.71942 19.2428C9.2949 19.4181 8.83926 19.5056 8.38001 19.5C7.41001 19.5 6.58001 19.16 5.89001 18.47L4.59001 17.17C3.93887 16.4978 3.57948 15.5958 3.59001 14.66V14.65H3.57001V14.67ZM8.96001 11.24C8.96001 11.05 8.98001 10.84 9.03001 10.61C9.16001 9.87 9.47001 9.24 9.98001 8.74L10.64 8.07L11.61 7.09L13.17 5.53C13.85 4.84 14.67 4.5 15.64 4.5C16.61 4.5 17.44 4.84 18.12 5.52L19.42 6.84C19.742 7.16702 19.9961 7.55449 20.1677 7.98012C20.3393 8.40574 20.4251 8.86111 20.42 9.32C20.42 9.9 20.31 10.43 20.05 10.92L20.03 10.94V10.96L20.01 11C19.87 11.27 19.66 11.54 19.41 11.8L16.23 15L16.22 15.02L16.21 15.04C15.77 15.46 15.29 15.74 14.78 15.87C15.222 15.4034 15.5601 14.8485 15.7721 14.2418C15.9841 13.6351 16.0652 12.9903 16.01 12.35L18 10.38C18.18 10.17 18.3 9.96 18.35 9.73C18.4141 9.43303 18.4106 9.12547 18.34 8.83C18.2549 8.6171 18.133 8.42079 17.98 8.25L16.68 6.95C16.3963 6.675 16.0151 6.52393 15.62 6.53C15.2 6.53 14.85 6.67 14.56 6.93L13.36 8.2L12.56 9L11.4 10.15C11.32 10.23 11.22 10.36 11.11 10.55C10.9541 10.9027 10.9258 11.2987 11.03 11.67L11.05 11.7V11.72L11.11 11.86C11.11 11.86 11.12 11.89 11.16 11.92L11.22 12.05L11.24 12.07L11.25 12.09L11.26 12.11C11.31 12.19 11.36 12.24 11.4 12.27L11.87 12.77C11.87 12.81 11.85 12.86 11.83 12.92L11.77 13.04L10.62 14.19L10.52 14.27L9.96001 13.71C9.90366 13.6433 9.84356 13.5799 9.78001 13.52C9.76001 13.51 9.76001 13.49 9.76001 13.48L9.74001 13.46C9.69851 13.4276 9.66442 13.3867 9.64001 13.34C9.61001 13.31 9.59001 13.3 9.59001 13.28L9.49001 13.13L9.47001 13.11L9.45001 13.07L9.37001 12.9V12.88C9.25999 12.6571 9.1664 12.4265 9.09001 12.19C9.06562 12.1054 9.05217 12.018 9.05001 11.93C8.99001 11.7 8.95001 11.47 8.95001 11.23V11.24H8.96001Z" fill="#868588"/>
</g>
<defs>
<clipPath id="clip0_72_1610">
<rect width="24" height="24" fill="white"/>
</clipPath>
</defs>
</svg>
