<svg width="21" height="21" viewBox="0 0 21 21" fill="none" xmlns="http://www.w3.org/2000/svg">
<g clip-path="url(#clip0_72_1296)">
<path d="M13.0719 13.1294L11.2619 18.1194C11.2169 18.2395 11.1363 18.3431 11.0309 18.4162C10.9254 18.4893 10.8002 18.5285 10.6719 18.5285C10.5436 18.5285 10.4184 18.4893 10.3129 18.4162C10.2075 18.3431 10.1269 18.2395 10.0819 18.1194L8.2819 13.1294C8.24926 13.0438 8.19836 12.9663 8.13273 12.9024C8.0671 12.8385 7.98833 12.7897 7.9019 12.7594L2.9119 10.9494C2.78712 10.9091 2.67833 10.8303 2.60116 10.7242C2.52399 10.6182 2.48242 10.4905 2.48242 10.3594C2.48242 10.2282 2.52399 10.1005 2.60116 9.99449C2.67833 9.88848 2.78712 9.80966 2.9119 9.76937L7.9019 7.96937C7.98749 7.93674 8.06493 7.88583 8.12883 7.8202C8.19274 7.75457 8.24156 7.6758 8.2719 7.58937L10.0819 2.59937C10.1269 2.47922 10.2075 2.37566 10.3129 2.30256C10.4184 2.22945 10.5436 2.19028 10.6719 2.19028C10.8002 2.19028 10.9254 2.22945 11.0309 2.30256C11.1363 2.37566 11.2169 2.47922 11.2619 2.59937L13.0619 7.58937C13.0945 7.67496 13.1454 7.7524 13.2111 7.81631C13.2767 7.88021 13.3555 7.92903 13.4419 7.95937L18.4319 9.76937C18.552 9.81436 18.6556 9.89496 18.7287 10.0004C18.8018 10.1058 18.841 10.2311 18.841 10.3594C18.841 10.4877 18.8018 10.6129 18.7287 10.7183C18.6556 10.8238 18.552 10.9044 18.4319 10.9494L13.4419 12.7494C13.3563 12.782 13.2789 12.8329 13.215 12.8985C13.1511 12.9642 13.1022 13.0429 13.0719 13.1294Z" fill="#FFC017"/>
</g>
<defs>
<clipPath id="clip0_72_1296">
<rect width="20" height="20" fill="white" transform="translate(0.671875 0.359375)"/>
</clipPath>
</defs>
</svg>
