<svg width="24" height="24" viewBox="0 0 24 24" fill="none" xmlns="http://www.w3.org/2000/svg">
<g clip-path="url(#clip0_72_1601)">
<path d="M20 5.33999C19.33 5.74999 18.6 6.03999 17.82 6.20999C17.5044 5.86146 17.1208 5.58115 16.6929 5.38625C16.2649 5.19134 15.8017 5.08598 15.3316 5.07661C14.8615 5.06725 14.3944 5.15408 13.959 5.33179C13.5237 5.50949 13.1293 5.77431 12.8 6.10999C12.4761 6.4345 12.2192 6.81968 12.0442 7.24349C11.8692 7.66731 11.7794 8.12146 11.78 8.57999C11.78 8.85999 11.81 9.11999 11.85 9.37999C10.4653 9.30551 9.11169 8.94128 7.87662 8.31082C6.64155 7.68037 5.55254 6.79773 4.68 5.71999C4.37916 6.25274 4.20788 6.8488 4.18 7.45999C4.18743 8.03601 4.33298 8.60184 4.60443 9.10995C4.87589 9.61805 5.26531 10.0536 5.74 10.38C5.19529 10.3612 4.66333 10.2102 4.19 9.93999V9.99999C4.19 11.67 5.39 13.08 6.99 13.42C6.69 13.48 6.39 13.52 6.05 13.54L5.43 13.48C5.65156 14.1709 6.08237 14.7759 6.66283 15.2112C7.24328 15.6466 7.94469 15.8907 8.67 15.91C7.41427 16.8618 5.88559 17.3842 4.31 17.4L3.5 17.35C5.10143 18.3703 6.96116 18.9116 8.86 18.91C15.26 18.91 18.77 13.59 18.76 9.00999V8.50999C19.45 8.01999 20.04 7.40999 20.5 6.69999C19.87 6.99999 19.2 7.17999 18.5 7.25999C19.2266 6.83006 19.7627 6.14021 20 5.32999" fill="#868588"/>
</g>
<defs>
<clipPath id="clip0_72_1601">
<rect width="24" height="24" fill="white"/>
</clipPath>
</defs>
</svg>
